# xmcd
#
# Track frame offsets:
#	150
#	18799
#	41094
#	59473
#	77539
#	99239
#	119677
#	135178
#	151182
#	171301
#
# Disc length: 2540 seconds
#
# Revision: 2
# Processed by: cddbd v1.5.1PL0 Copyright (c) Steve Scherf et al.
# Submitted via: MusicWizard 7.2.0
#
DISCID=7209ea0a
DTITLE=Susie Hansen - The Salsa Never Ends
DYEAR=2002
DGENRE=Salsa
TTITLE0=I Want To Know
TTITLE1=La Salsa Nunca Se Acaba
TTITLE2=Blues Con Fuego
TTITLE3=Que Pase La Tormenta
TTITLE4=Cha Cha Con Mana
TTITLE5=La Pregunta
TTITLE6=With Each Beat Of My Heart
TTITLE7=Alibi
TTITLE8=Elegua
TTITLE9=Tambo
EXTD=YEAR: 2002
EXTT0=
EXTT1=
EXTT2=
EXTT3=
EXTT4=
EXTT5=
EXTT6=
EXTT7=
EXTT8=
EXTT9=
PLAYORDER=
